<svg version="1.1" xmlns="http://www.w3.org/2000/svg" viewBox="0 0 2410.428571428571 1318.9999999999995" width="2410.428571428571" height="1318.9999999999995">
  <!-- svg-source:excalidraw -->
  
  <defs>
    <style>
      @font-face {
        font-family: "Virgil";
        src: url("https://excalidraw.com/Virgil.woff2");
      }
      @font-face {
        font-family: "Cascadia";
        src: url("https://excalidraw.com/Cascadia.woff2");
      }
    </style>
  </defs>
  <rect x="0" y="0" width="2410.428571428571" height="1318.9999999999995" fill="#ffffff"></rect><g transform="translate(966.2857142857146 559.7142857142852) rotate(0 149 12.5)"><text x="0" y="18" font-family="Virgil, Segoe UI Emoji" font-size="20px" fill="#000000" text-anchor="start" style="white-space: pre;" direction="ltr">- Trading Stories at a party.</text></g><g transform="translate(780.1428571428572 166.428571428571) rotate(0 165.5 12.5)"><text x="0" y="18" font-family="Virgil, Segoe UI Emoji" font-size="20px" fill="#000000" text-anchor="start" style="white-space: pre;" direction="ltr">- Setting up chairs for the party</text></g><g transform="translate(783.9999999999999 193.57142857142787) rotate(0 152.5 12.5)"><text x="0" y="18" font-family="Virgil, Segoe UI Emoji" font-size="20px" fill="#000000" text-anchor="start" style="white-space: pre;" direction="ltr">- Preparing food for the party</text></g><g transform="translate(36.99999999999977 647.7142857142857) rotate(0 251.5 12.5)"><text x="0" y="18" font-family="Virgil, Segoe UI Emoji" font-size="20px" fill="#000000" text-anchor="start" style="white-space: pre;" direction="ltr">- Watching the conversation flow around the party</text></g><g transform="translate(1727.428571428571 142.85714285714255) rotate(0 200.5 12.5)"><text x="0" y="18" font-family="Virgil, Segoe UI Emoji" font-size="20px" fill="#000000" text-anchor="start" style="white-space: pre;" direction="ltr">- Engaging in breakout groups in a party</text></g><g transform="translate(1231.2857142857138 984.142857142857) rotate(0 204.5 12.5)"><text x="0" y="18" font-family="Virgil, Segoe UI Emoji" font-size="20px" fill="#000000" text-anchor="start" style="white-space: pre;" direction="ltr">- Learning silly jokes when you were young</text></g><g transform="translate(29.57142857142867 614.7142857142852) rotate(0 119.5 12.5)"><text x="0" y="18" font-family="Virgil, Segoe UI Emoji" font-size="20px" fill="#000000" text-anchor="start" style="white-space: pre;" direction="ltr">- Being alone in a crowd</text></g><g transform="translate(45.85714285714312 684.2857142857139) rotate(0 85.5 12.5)"><text x="0" y="18" font-family="Virgil, Segoe UI Emoji" font-size="20px" fill="#000000" text-anchor="start" style="white-space: pre;" direction="ltr">- People watching</text></g><g transform="translate(1216.7142857142853 139.85714285714255) rotate(0 118.5 12.5)"><text x="0" y="18" font-family="Virgil, Segoe UI Emoji" font-size="20px" fill="#000000" text-anchor="start" style="white-space: pre;" direction="ltr">- Catching up with Zeke</text></g><g transform="translate(1759.2857142857142 198.71428571428544) rotate(0 216.4999999999999 12.5)"><text x="0" y="18" font-family="Virgil, Segoe UI Emoji" font-size="20px" fill="#000000" text-anchor="start" style="white-space: pre;" direction="ltr">- Finding someone on the edge who’s a nerd.</text></g><g transform="translate(783.8571428571431 222.85714285714255) rotate(0 138 12.5)"><text x="0" y="18" font-family="Virgil, Segoe UI Emoji" font-size="20px" fill="#000000" text-anchor="start" style="white-space: pre;" direction="ltr">- Cleaning up after a party</text></g><g transform="translate(347.57142857142856 146.7142857142852) rotate(0 142.5 12.5)"><text x="0" y="18" font-family="Virgil, Segoe UI Emoji" font-size="20px" fill="#000000" text-anchor="start" style="white-space: pre;" direction="ltr">- Leaving early from a party</text></g><g transform="translate(1228.1428571428569 949.8571428571428) rotate(0 227 12.5)"><text x="0" y="18" font-family="Virgil, Segoe UI Emoji" font-size="20px" fill="#000000" text-anchor="start" style="white-space: pre;" direction="ltr">- Staying up *waaaaay* too late at a party</text></g><g transform="translate(1738.571428571428 243.14285714285654) rotate(0 297.9999999999999 12.5)"><text x="0" y="18" font-family="Virgil, Segoe UI Emoji" font-size="20px" fill="#000000" text-anchor="start" style="white-space: pre;" direction="ltr">- Snooping around a house, looking for bathrooms or the like</text></g><g transform="translate(1665.5714285714284 590.2857142857137) rotate(0 135 12.5)"><text x="0" y="18" font-family="Virgil, Segoe UI Emoji" font-size="20px" fill="#000000" text-anchor="start" style="white-space: pre;" direction="ltr">- Seeking a deep connection</text></g><g transform="translate(1236.7142857142858 1031.2857142857147) rotate(0 170.5 37.5)"><text x="0" y="18" font-family="Virgil, Segoe UI Emoji" font-size="20px" fill="#000000" text-anchor="start" style="white-space: pre;" direction="ltr">- Grasping at the end of a party</text><text x="0" y="43" font-family="Virgil, Segoe UI Emoji" font-size="20px" fill="#000000" text-anchor="start" style="white-space: pre;" direction="ltr">like sand, because you don't know </text><text x="0" y="68" font-family="Virgil, Segoe UI Emoji" font-size="20px" fill="#000000" text-anchor="start" style="white-space: pre;" direction="ltr">when you'll see these folks again.</text></g><g transform="translate(787.4285714285713 95.42857142857122) rotate(0 69.5 12.5)"><text x="0" y="18" font-family="Virgil, Segoe UI Emoji" font-size="20px" fill="#000000" text-anchor="start" style="white-space: pre;" direction="ltr">Zeke (Zombie)</text></g><g transform="translate(1721.9999999999995 64.85714285714232) rotate(0 76 12.5)"><text x="0" y="18" font-family="Virgil, Segoe UI Emoji" font-size="20px" fill="#000000" text-anchor="start" style="white-space: pre;" direction="ltr">Victor (Vampire)</text></g><g transform="translate(24.428571428571445 558.9999999999997) rotate(0 77.5 12.5)"><text x="0" y="18" font-family="Virgil, Segoe UI Emoji" font-size="20px" fill="#000000" text-anchor="start" style="white-space: pre;" direction="ltr">Walton (Wizard)</text></g><g transform="translate(1652.1428571428573 542.5714285714281) rotate(0 64 12.5)"><text x="0" y="18" font-family="Virgil, Segoe UI Emoji" font-size="20px" fill="#000000" text-anchor="start" style="white-space: pre;" direction="ltr">Gina (Ghost)</text></g><g transform="translate(1293.5714285714284 91.42857142857122) rotate(0 72.5 12.5)"><text x="0" y="18" font-family="Virgil, Segoe UI Emoji" font-size="20px" fill="#000000" text-anchor="start" style="white-space: pre;" direction="ltr">Sam (Skeleton)</text></g><g transform="translate(377.9999999999998 86.71428571428544) rotate(0 80 12.5)"><text x="0" y="18" font-family="Virgil, Segoe UI Emoji" font-size="20px" fill="#000000" text-anchor="start" style="white-space: pre;" direction="ltr">Wilma (Werewolf)</text></g><g transform="translate(1191.7142857142858 896.5714285714286) rotate(0 55 12.5)"><text x="0" y="18" font-family="Virgil, Segoe UI Emoji" font-size="20px" fill="#000000" text-anchor="start" style="white-space: pre;" direction="ltr">Irene (Imp)</text></g><g stroke-linecap="round" transform="translate(1171.4285714285716 853.2857142857141) rotate(0 329.28571428571445 227.85714285714278)"><path d="M-0.47 -0.37 C255.58 -1.93, 511.11 -0.56, 658 0.69 M-0.28 -0.19 C201.06 2.06, 401.04 2.31, 658.9 -0.06 M657.74 -0.09 C659.15 122.84, 659.29 246.66, 658.79 456.33 M658.4 -0.39 C659.55 165.71, 659.28 332.06, 658.15 455.51 M658.63 455.09 C506.96 452.6, 354.8 454.03, -0.79 455.02 M658.36 455.59 C428.55 453.16, 198.81 453.41, -0.17 455.58 M0.37 455.67 C-1.73 284.68, -2.35 112.49, 0.67 0.79 M0.33 455.28 C-0.99 275.34, -1.32 94.51, 0.09 -0.45" stroke="#000000" stroke-width="1" fill="none"></path></g><g stroke-linecap="round" transform="translate(322.8571428571428 60.42857142857099) rotate(0 190.71428571428567 183.57142857142856)"><path d="M0.21 -0.78 C105.97 1.1, 213.49 1.63, 381.85 -0.98 M-0.14 -0.01 C85.14 -0.62, 169.85 -0.86, 380.99 -0.51 M380.75 0.89 C380.87 88.04, 382.46 174.73, 382.01 366.86 M381.63 0 C382.53 120.19, 382.32 239.55, 381.92 366.65 M381.56 366.07 C254.58 367.97, 126.45 367.03, 0.75 368.16 M381.66 366.73 C302.59 367.63, 225.26 367.69, -0.39 367.36 M0.06 367.76 C-1.59 254.5, -1.08 142.83, 1.03 -0.82 M-0.32 367.12 C1.12 247.84, 0.88 128.95, -0.36 0.45" stroke="#000000" stroke-width="1" fill="none"></path></g><g stroke-linecap="round" transform="translate(738.5714285714286 83.28571428571388) rotate(0 203.57142857142856 139.28571428571422)"><path d="M0.29 0.42 C155.86 -2.89, 313.03 -1.17, 407.04 -0.73 M-0.05 0.03 C137.16 -1.27, 273.69 -1.05, 407.42 0.46 M408.48 -0.8 C407.59 66.43, 406.58 130.98, 405.99 277.67 M407.26 0.58 C405.94 103.73, 406.22 207.51, 407.55 279.03 M406.29 279.26 C300.32 279.03, 195.59 279.17, 0.1 279.61 M406.85 278.16 C286.29 279.04, 166.04 278.64, -0.5 278.04 M-0.26 278.9 C-1.79 209.66, 0.46 140.08, 1.49 -1.12 M-0.11 278.71 C-1.84 214.68, -1.75 151.32, -0.66 0.63" stroke="#000000" stroke-width="1" fill="none"></path></g><g stroke-linecap="round" transform="translate(1688.5714285714284 40.428571428571104) rotate(0 355.92857142857144 166.4285714285714)"><path d="M-0.43 0.24 C142.88 2.61, 285.89 2.14, 711.76 0.57 M-0.28 0.36 C164.65 2.02, 329.73 2.14, 711.92 0.11 M712.05 0.43 C708.66 133.75, 710.11 265.29, 711.91 332.73 M711.54 0.01 C712.22 96.48, 711.63 192.11, 711.91 332.66 M712.12 332.08 C535.34 332.94, 358.26 332.92, 0.25 332.48 M711.46 332.97 C501.19 330.44, 290.09 330.36, -0.02 332.77 M0.16 334.1 C-1.5 245.72, -1.81 160.71, -0.37 0.19 M-0.24 332.62 C-2.01 203.22, -0.99 72.74, -0.19 -0.42" stroke="#000000" stroke-width="1" fill="none"></path></g><g stroke-linecap="round" transform="translate(1190 43.285714285714334) rotate(0 163.57142857142856 150)"><path d="M1.05 -0.08 C107.38 0.59, 216.15 2.39, 327.31 1.26 M0.06 -0.19 C93.26 1.49, 186.81 1.1, 326.9 -0.24 M327.82 -0.42 C328.13 71.22, 330.48 143, 325.8 300.02 M326.5 0.58 C328.84 86.4, 329.27 173.71, 327.82 299.69 M326.24 301.28 C231.12 302.84, 133.98 300.81, 0.29 299.91 M326.82 299.6 C241.38 301.69, 155.47 301.29, -0.08 300.64 M1.33 301.03 C0.11 215.71, 0.89 132.07, -0.12 -0.25 M-0.1 300.73 C0.45 216.31, 0.17 132.2, -0.64 0.01" stroke="#000000" stroke-width="1" fill="none"></path></g><g stroke-linecap="round" transform="translate(1628.8571428571427 538.9999999999997) rotate(0 348 87.85714285714289)"><path d="M-0.8 0.05 C209.11 2.74, 419.44 2.15, 695.91 0.06 M0.05 0.09 C239.33 -2.58, 478.04 -2.58, 696.35 0.33 M697.89 -1.61 C696.13 62.5, 696.53 126.02, 697.93 175.71 M695.32 0.25 C694.85 53.69, 694.44 107.12, 695.34 176.42 M696.3 175.79 C505.8 176.7, 316.57 177.35, 0.77 176.04 M695.8 175.39 C451.7 175.96, 207.2 175.94, -0.16 175.73 M-0.08 175.73 C-1.42 120.91, -0.85 65.77, 1.21 -1.01 M-0.5 175.57 C0.41 135.51, 0.75 96.86, -0.62 -0.28" stroke="#000000" stroke-width="1" fill="none"></path></g><g stroke-linecap="round" transform="translate(10 548.9999999999997) rotate(0 316.4285714285714 135.71428571428567)"><path d="M0.13 -0.39 C215.22 0.78, 431.32 0.79, 632.41 -0.32 M-0.33 -0.02 C192.99 -2.14, 386.14 -2.03, 633.14 0.24 M631.56 -0.78 C631.04 68.15, 630.24 136.43, 633.23 270.46 M632.81 -0.06 C632.37 73.71, 632.33 148.17, 633.49 271.58 M633.5 271.06 C388.44 270, 143.71 270.71, 0.12 271.33 M633.06 271.46 C434.15 272.79, 235.99 273.24, -0.21 271.26 M0.46 270.32 C0.92 200.78, 2.58 130.61, 0.74 -0.5 M0.13 271.22 C-1.75 209.43, -1.75 147.98, 0.67 0.12" stroke="#000000" stroke-width="1" fill="none"></path></g><g transform="translate(357.14285714285677 182.85714285714278) rotate(0 141 12.5)"><text x="0" y="18" font-family="Virgil, Segoe UI Emoji" font-size="20px" fill="#000000" text-anchor="start" style="white-space: pre;" direction="ltr">- Has to be careful of moon</text></g><g transform="translate(337.14285714285677 235.71428571428544) rotate(0 178.5 12.5)"><text x="0" y="18" font-family="Virgil, Segoe UI Emoji" font-size="20px" fill="#000000" text-anchor="start" style="white-space: pre;" direction="ltr">- Has other engagements that night</text></g><g transform="translate(781.4285714285709 132.85714285714255) rotate(0 64 12.5)"><text x="0" y="18" font-family="Virgil, Segoe UI Emoji" font-size="20px" fill="#000000" text-anchor="start" style="white-space: pre;" direction="ltr">- Party host</text></g><g stroke-linecap="round"><g transform="translate(1048.571428571428 69) rotate(0 116.02184249289274 -14.906256978702743)"><path d="M0.91 0.85 C39.68 -4.15, 193.75 -23.79, 232.11 -29.04 M-0.07 0.25 C38.64 -5.16, 193.16 -25.67, 231.52 -30.66" stroke="#000000" stroke-width="1" fill="none"></path></g><g transform="translate(1048.571428571428 69) rotate(0 116.02184249289274 -14.906256978702743)"><path d="M28.98 -11.78 C22.33 -9.72, 12.65 -6.97, -0.01 2.55 M27.89 -12.65 C17.58 -7.12, 7.77 -3.26, 0.25 0.17" stroke="#000000" stroke-width="1" fill="none"></path></g><g transform="translate(1048.571428571428 69) rotate(0 116.02184249289274 -14.906256978702743)"><path d="M31.59 8.57 C24.1 5.35, 13.74 2.79, -0.01 2.55 M30.51 7.71 C19.18 5.94, 8.43 2.5, 0.25 0.17" stroke="#000000" stroke-width="1" fill="none"></path></g><g transform="translate(1048.571428571428 69) rotate(0 116.02184249289274 -14.906256978702743)"><path d="M206.33 -15.67 C213.34 -21.21, 217.55 -25.67, 230.6 -28.96 M205.24 -16.53 C213.94 -21.26, 223.25 -27.31, 230.86 -31.34" stroke="#000000" stroke-width="1" fill="none"></path></g><g transform="translate(1048.571428571428 69) rotate(0 116.02184249289274 -14.906256978702743)"><path d="M203.65 -36.01 C211.52 -36.27, 216.43 -35.42, 230.6 -28.96 M202.56 -36.87 C212.3 -34.32, 222.57 -33.07, 230.86 -31.34" stroke="#000000" stroke-width="1" fill="none"></path></g></g><g transform="translate(1087.1428571428569 10) rotate(0 34 12.5)"><text x="0" y="18" font-family="Virgil, Segoe UI Emoji" font-size="20px" fill="#000000" text-anchor="start" style="white-space: pre;" direction="ltr">Friends</text></g><g transform="translate(1209.9999999999995 172.85714285714278) rotate(0 100 12.5)"><text x="0" y="18" font-family="Virgil, Segoe UI Emoji" font-size="20px" fill="#000000" text-anchor="start" style="white-space: pre;" direction="ltr">- Along for the Ride</text></g><g stroke-linecap="round"><g transform="translate(1711.428571428571 294.7142857142859) rotate(0 -144.13171201280318 285.2580454587936)"><path d="M-0.54 -0.59 C-48.7 94.4, -240.79 476.18, -289.14 571.1 M1.38 1.72 C-46.86 96.9, -240.79 474.89, -289.64 569.56" stroke="#000000" stroke-width="1" fill="none"></path></g><g transform="translate(1711.428571428571 294.7142857142859) rotate(0 -144.13171201280318 285.2580454587936)"><path d="M-5.05 30.63 C-1.52 19.61, -4.07 12.86, 0.75 0.24 M-4.06 29.39 C-2.81 19.73, -0.4 8.22, 0.17 0.12" stroke="#000000" stroke-width="1" fill="none"></path></g><g transform="translate(1711.428571428571 294.7142857142859) rotate(0 -144.13171201280318 285.2580454587936)"><path d="M-23.38 21.39 C-14.49 13.11, -11.77 9.01, 0.75 0.24 M-22.39 20.14 C-14.83 13.66, -6.03 5.38, 0.17 0.12" stroke="#000000" stroke-width="1" fill="none"></path></g><g transform="translate(1711.428571428571 294.7142857142859) rotate(0 -144.13171201280318 285.2580454587936)"><path d="M-286.85 541.22 C-284.82 547.27, -289.47 557.63, -288.35 570.39 M-285.86 539.98 C-287.75 551.12, -287.89 560.4, -288.93 570.27" stroke="#000000" stroke-width="1" fill="none"></path></g><g transform="translate(1711.428571428571 294.7142857142859) rotate(0 -144.13171201280318 285.2580454587936)"><path d="M-268.6 550.61 C-271.91 553.88, -281.8 561.54, -288.35 570.39 M-267.61 549.36 C-275.78 557.29, -282.29 563.29, -288.93 570.27" stroke="#000000" stroke-width="1" fill="none"></path></g></g><g stroke-linecap="round"><g transform="translate(579.9999999999994 737.5714285714286) rotate(0 321.21211829177975 107.94777678300306)"><path d="M-0.54 -0.98 C106.35 34.88, 533.63 179.62, 640.66 215.96 M1.37 1.12 C108.71 37, 536.37 180.68, 642.97 216.88" stroke="#000000" stroke-width="1" fill="none"></path></g><g transform="translate(579.9999999999994 737.5714285714286) rotate(0 321.21211829177975 107.94777678300306)"><path d="M27.81 -2.96 C20.18 -1.31, 14.68 -2.06, -0.2 -0.67 M30.1 -1.18 C17.75 -0.8, 7.37 -1.38, 0.16 -1.31" stroke="#000000" stroke-width="1" fill="none"></path></g><g transform="translate(579.9999999999994 737.5714285714286) rotate(0 321.21211829177975 107.94777678300306)"><path d="M21.24 16.48 C15.08 13.43, 11.17 7.95, -0.2 -0.67 M23.53 18.26 C13.55 11.5, 5.57 3.83, 0.16 -1.31" stroke="#000000" stroke-width="1" fill="none"></path></g><g transform="translate(579.9999999999994 737.5714285714286) rotate(0 321.21211829177975 107.94777678300306)"><path d="M611.34 216.3 C618.3 217.88, 627.4 216.79, 643.31 217.19 M613.63 218.08 C623.15 217.49, 634.65 216.4, 643.67 216.55" stroke="#000000" stroke-width="1" fill="none"></path></g><g transform="translate(579.9999999999994 737.5714285714286) rotate(0 321.21211829177975 107.94777678300306)"><path d="M617.9 196.86 C623.4 203.14, 630.9 206.78, 643.31 217.19 M620.19 198.64 C627.34 205.19, 636.45 211.19, 643.67 216.55" stroke="#000000" stroke-width="1" fill="none"></path></g></g><g stroke-linecap="round"><g transform="translate(649.9999999999994 370.4285714285717) rotate(0 503.4002714370717 109.5201693296433)"><path d="M0.25 -1.16 C168.27 35.45, 840.02 183.39, 1007.88 220.2 M-1.08 0.85 C166.86 37.01, 839.35 181.52, 1007.32 218.18" stroke="#000000" stroke-width="1" fill="none"></path></g><g transform="translate(649.9999999999994 370.4285714285717) rotate(0 503.4002714370717 109.5201693296433)"><path d="M28.06 -3.9 C21.96 -3.53, 12.72 -1.63, 0.54 -1.47 M29.24 -5.96 C19.59 -3.3, 9.35 -3.26, -0.64 -2.13" stroke="#000000" stroke-width="1" fill="none"></path></g><g transform="translate(649.9999999999994 370.4285714285717) rotate(0 503.4002714370717 109.5201693296433)"><path d="M23.66 16.14 C18.7 10.86, 10.69 7.12, 0.54 -1.47 M24.84 14.09 C16.61 9.92, 7.86 3.14, -0.64 -2.13" stroke="#000000" stroke-width="1" fill="none"></path></g><g transform="translate(649.9999999999994 370.4285714285717) rotate(0 503.4002714370717 109.5201693296433)"><path d="M975.67 223.47 C986.27 221.46, 993.76 221.1, 1007.61 217.87 M976.85 221.42 C987.4 221.31, 997.38 218.62, 1006.43 217.2" stroke="#000000" stroke-width="1" fill="none"></path></g><g transform="translate(649.9999999999994 370.4285714285717) rotate(0 503.4002714370717 109.5201693296433)"><path d="M980.01 203.42 C989.49 207.05, 995.76 212.34, 1007.61 217.87 M981.19 201.36 C990.35 208.08, 998.86 212.21, 1006.43 217.2" stroke="#000000" stroke-width="1" fill="none"></path></g></g><g stroke-linecap="round"><g transform="translate(1892.8571428571422 549.0000000000001) rotate(0 -217.84052461743488 -123.20357240182955)"><path d="M-0.98 -0.63 C-73.66 -41.87, -363.21 -207.11, -436.02 -248.06 M0.7 1.66 C-72.04 -39.41, -363.71 -205.36, -436.38 -247.01" stroke="#000000" stroke-width="1" fill="none"></path></g><g transform="translate(1892.8571428571422 549.0000000000001) rotate(0 -217.84052461743488 -123.20357240182955)"><path d="M-31.6 -3.79 C-23.14 -5.07, -11.28 -4.06, -0.43 -2.32 M-30.5 -6.3 C-25.2 -5.12, -17.36 -4.7, -0.84 -1.32" stroke="#000000" stroke-width="1" fill="none"></path></g><g transform="translate(1892.8571428571422 549.0000000000001) rotate(0 -217.84052461743488 -123.20357240182955)"><path d="M-21.45 -21.63 C-16.16 -17.57, -7.38 -11.14, -0.43 -2.32 M-20.35 -24.13 C-17.03 -19.14, -11.31 -14.98, -0.84 -1.32" stroke="#000000" stroke-width="1" fill="none"></path></g><g transform="translate(1892.8571428571422 549.0000000000001) rotate(0 -217.84052461743488 -123.20357240182955)"><path d="M-407.86 -240.08 C-417.3 -244.91, -423.4 -246.96, -435.83 -248.7 M-406.76 -242.59 C-413.93 -243.09, -418.49 -244.79, -436.24 -247.71" stroke="#000000" stroke-width="1" fill="none"></path></g><g transform="translate(1892.8571428571422 549.0000000000001) rotate(0 -217.84052461743488 -123.20357240182955)"><path d="M-418.03 -222.26 C-424.29 -232.42, -427.3 -239.88, -435.83 -248.7 M-416.93 -224.77 C-422.12 -229.08, -424.55 -234.51, -436.24 -247.71" stroke="#000000" stroke-width="1" fill="none"></path></g></g><g stroke-linecap="round"><g transform="translate(1635.7142857142853 640.4285714285717) rotate(0 -46.03512688941328 110.65347169591041)"><path d="M-0.03 0.12 C-15.17 37.15, -75.82 184.18, -91.07 221.03 M-1.5 -0.86 C-16.79 36.4, -76.86 184.99, -92.04 222.17" stroke="#000000" stroke-width="1" fill="none"></path></g><g transform="translate(1635.7142857142853 640.4285714285717) rotate(0 -46.03512688941328 110.65347169591041)"><path d="M-1.07 30.02 C-1.92 20.77, -1.27 11.5, -0.7 -0.56 M-1.43 29.91 C-0.94 22.83, -0.09 15.87, -0.78 0.12" stroke="#000000" stroke-width="1" fill="none"></path></g><g transform="translate(1635.7142857142853 640.4285714285717) rotate(0 -46.03512688941328 110.65347169591041)"><path d="M-20.05 22.2 C-15.61 15.17, -9.6 8.1, -0.7 -0.56 M-20.4 22.1 C-15.38 16.75, -10.03 11.64, -0.78 0.12" stroke="#000000" stroke-width="1" fill="none"></path></g><g transform="translate(1635.7142857142853 640.4285714285717) rotate(0 -46.03512688941328 110.65347169591041)"><path d="M-90.74 192.11 C-92.81 199.79, -92.82 207.44, -92.71 221.48 M-91.09 192 C-90.84 199.14, -90.55 206.39, -92.79 222.16" stroke="#000000" stroke-width="1" fill="none"></path></g><g transform="translate(1635.7142857142853 640.4285714285717) rotate(0 -46.03512688941328 110.65347169591041)"><path d="M-71.72 199.83 C-79.09 205.33, -84.47 210.79, -92.71 221.48 M-72.08 199.72 C-76.38 205.14, -80.59 210.57, -92.79 222.16" stroke="#000000" stroke-width="1" fill="none"></path></g></g></svg>